<svg xmlns="http://www.w3.org/2000/svg" width="48" height="49" fill="none"><path stroke="#932EFA" stroke-linecap="round" stroke-width="2" d="M44 24.5c0-11.046-8.954-20-20-20s-20 8.954-20 20 8.954 20 20 20"/><path stroke="#932EFA" stroke-linejoin="round" stroke-width="2" d="M40 11.898c-1.87.135-4.264.859-5.924 3.008-2.999 3.881-5.998 4.205-7.997 2.911-3-1.94-.479-5.084-3.999-6.793-2.294-1.113-2.614-4.143-1.337-6.524M4 22.5c1.525 1.324 3.66 2.536 6.178 2.536 5.199 0 6.239.994 6.239 4.968 0 3.973 0 3.973 1.04 6.954.676 1.938.912 3.877-.436 5.542"/><path stroke="#932EFA" stroke-linecap="round" stroke-width="2" d="M39.798 40.358 44 44.5m-1.783-9.908c0 4.469-3.63 8.092-8.109 8.092-4.478 0-8.108-3.623-8.108-8.092 0-4.47 3.63-8.092 8.108-8.092 4.478 0 8.109 3.623 8.109 8.092Z"/></svg>