<svg xmlns="http://www.w3.org/2000/svg" width="20" height="20" fill="none"><path fill="#FD5133" d="M5.49 18.193c-.917-1.044-1.835-2.128-2.42-3.422a7.758 7.758 0 0 1-.459-4.465 9.63 9.63 0 0 1 1.92-4.13c-.084 1.043.292 2.128 1.001 2.92-.417-2.003.25-4.172 1.586-5.758C8.453 1.753 10.289.71 12.208 0c-.96 1.001-1.084 2.587-.709 3.922.376 1.336 1.168 2.504 1.878 3.714s1.377 2.462 1.419 3.839c.375-.71.792-1.419 1.043-2.212.25-.793.375-1.627.167-2.42.75.918 1.168 1.836 1.377 3.004.208 1.169.166 2.379.041 3.547-.167 1.294-.5 2.629-1.21 3.714-.834 1.293-2.17 2.211-3.63 2.712-2.587.459-5.132.083-7.093-1.627Z"/><path fill="#FEBA22" d="M8.663 19.736c3.422 1.336 6.801-2.712 4.924-5.841 0-.042-.042-.042-.042-.084.167 1.711-.25 2.963-1.043 3.672.417-1.001.125-2.17-.376-3.17-.5-.96-1.21-1.837-1.752-2.755-.543-.96-.96-2.044-.71-3.13-1.001.752-1.71 1.878-2.002 3.088-.292 1.21-.126 2.546.417 3.672-.626-.459-1.085-1.21-1.127-2.003-.667.793-1.085 1.836-1.043 2.88 0 1.627 1.294 3.087 2.754 3.671Z"/></svg>