<svg xmlns="http://www.w3.org/2000/svg" width="24" height="24" fill="none"><path fill="#4E5255" d="M14.032 9.492a.75.75 0 1 0 1.133-.984l-1.133.984Zm-4.064 5.016a.75.75 0 0 0-1.133.984l1.133-.984ZM12.75 7a.75.75 0 0 0-1.5 0h1.5Zm-1.5 10a.75.75 0 0 0 1.5 0h-1.5Zm9-5A8.25 8.25 0 0 1 12 20.25v1.5A9.75 9.75 0 0 0 21.75 12h-1.5ZM12 20.25A8.25 8.25 0 0 1 3.75 12h-1.5A9.75 9.75 0 0 0 12 21.75v-1.5ZM3.75 12A8.25 8.25 0 0 1 12 3.75v-1.5A9.75 9.75 0 0 0 2.25 12h1.5ZM12 3.75A8.25 8.25 0 0 1 20.25 12h1.5A9.75 9.75 0 0 0 12 2.25v1.5Zm0 7.5c-.701 0-1.302-.19-1.705-.46-.41-.272-.545-.566-.545-.79h-1.5c0 .881.536 1.587 1.213 2.038.682.455 1.581.712 2.537.712v-1.5ZM9.75 10c0-.223.136-.518.545-.79.403-.27 1.004-.46 1.705-.46v-1.5c-.956 0-1.855.257-2.537.712C8.786 8.413 8.25 9.119 8.25 10h1.5ZM12 8.75c.955 0 1.692.35 2.032.742l1.133-.984c-.697-.803-1.9-1.258-3.165-1.258v1.5Zm0 4c.701 0 1.302.19 1.705.46.41.272.545.566.545.79h1.5c0-.881-.536-1.587-1.213-2.038-.682-.455-1.581-.712-2.537-.712v1.5ZM11.25 7v1h1.5V7h-1.5Zm0 9v1h1.5v-1h-1.5Zm.75-.75c-.955 0-1.692-.35-2.032-.742l-1.133.984c.697.803 1.9 1.258 3.165 1.258v-1.5ZM14.25 14c0 .223-.136.518-.545.79-.403.27-1.004.46-1.705.46v1.5c.956 0 1.855-.257 2.537-.712.677-.451 1.213-1.157 1.213-2.038h-1.5Zm-3-6v8h1.5V8h-1.5Z"/></svg>