<svg xmlns="http://www.w3.org/2000/svg" width="76" height="48" fill="none"><path fill="#011813" d="M72.947 12.156c-3.72-.643-7.504.495-11.014 1.822a.178.178 0 0 1-.23-.122.336.336 0 0 1 .152-.371 22.501 22.501 0 0 1 8.522-3.06c-15.088-4.545-35.614-5.816-46 8.29 4.536.712 9.197 2.186 12.5 5.563a13.515 13.515 0 0 1 3.888 7.031c1.382 6.546-3.43 13.292-10.118 13.303-12.138.021-16.295-15.023-10.737-25.176-6.422-.716-12.949-.582-19.38.049a.134.134 0 0 1-.147-.115.216.216 0 0 1 .182-.247c6.601-.988 13.299-1.396 19.969-.875 9.788-16.797 33.458-16.493 49-9.075-2.386-1.14-3.67-5.014-3.623-7.047a.254.254 0 0 1 .23-.267.332.332 0 0 1 .295.172c1.776 3.243 4.157 5.632 7.504 8.151 1.373 1.034 1.865 2.467-.993 1.974ZM21.902 23.467c-3.255 7.69 1.073 19.21 9.137 18.58 4.673-.364 8.176-4.563 7.775-9.234a11.767 11.767 0 0 0-3.316-7.206c-3.09-3.31-7.59-4.786-11.952-5.622a20.202 20.202 0 0 0-1.644 3.482Zm1.588 23.269a15.76 15.76 0 0 0-2.494-1.23.184.184 0 0 0-.21.288 3.7 3.7 0 0 0 2.607 1.285.184.184 0 0 0 .097-.343Z"/><path fill="#011813" d="M18.976 44.017c-2.994-3.476-5.21-7.948-5.548-12.953 0-.104-.155-.095-.18 0-1.258 4.924 1.587 10.594 5.613 13.082a.09.09 0 0 0 .129-.074.09.09 0 0 0-.014-.055ZM48.615 1.282a18.426 18.426 0 0 1 5.989.437.06.06 0 0 0 .039-.11C52.867.54 50.51.41 48.586 1.164a.062.062 0 0 0-.032.071.062.062 0 0 0 .061.047Z"/></svg>