<svg xmlns="http://www.w3.org/2000/svg" width="16" height="20" fill="none"><path stroke="#4E5255" d="M1.102 10.402A8.994 8.994 0 0 1 2.17 7.589c.18.678.521 1.316.99 1.84l1.243 1.389-.38-1.824C3.64 7.163 4.249 5.146 5.5 3.66c.95-1.128 2.18-1.976 3.53-2.622-.322.978-.277 2.078-.012 3.02l.467-.132-.467.132c.33 1.175.968 2.234 1.567 3.228.123.203.244.404.36.603.713 1.216 1.313 2.366 1.35 3.6l.058 1.89.885-1.67.18-.336c.32-.595.673-1.247.898-1.96.08-.252.15-.515.2-.784.168.402.29.83.374 1.306.197 1.1.16 2.255.038 3.4-.163 1.26-.484 2.507-1.132 3.5l-.002.002c-.755 1.17-1.973 2.023-3.336 2.497-2.464.43-4.814.059-6.614-1.497-.91-1.035-1.77-2.061-2.315-3.267a7.258 7.258 0 0 1-.427-4.168Z"/></svg>