<svg xmlns="http://www.w3.org/2000/svg" width="96" height="66" fill="none"><path fill="#011813" d="M94.838 14.168c-4.885-2.085-9.209-2.241-14.363-.997-.797-.13.242-.833.5-1.052 2.363-1.87 6.212-1.917 9.25-1.758-7.361-4.277-16.737-7.94-25.27-6.996-9.909.897-20.159 7.979-21.172 18.407 6.137 2.18 12.355 5.97 15.515 11.877 3.349 7.984-4.916 12.021-11.614 7.181-5.432-3.926-8.273-10.677-8.49-17.309-25.742-5.19-42.52 17.167-37.133 41.414a.225.225 0 0 1-.173.277.226.226 0 0 1-.277-.16C-5.135 39.88 12.516 16.2 39.359 20.637c.874-7.722 6.367-14.326 13.202-17.68C64.732-3.206 80.703.987 90.956 9.213c-.261-1.389-1.042-2.633-1.308-4.016-.311-1.619.302-4.582 1.038-3.665a30.86 30.86 0 0 0 1.33 4.537 111.215 111.215 0 0 0 1.803 4.657l.122.278 1.205 2.827a.248.248 0 0 1-.308.336ZM46.71 33.771c4.14 7.956 13.607 6.626 8.158-.864a28.09 28.09 0 0 0-11.108-7.972 20.498 20.498 0 0 0 2.95 8.836Z"/><path fill="#011813" d="M5.767 28.41a.186.186 0 0 0 .311-.037c2.536-5.087 8.209-8.744 13.238-9.122a.178.178 0 0 0 .167-.178.206.206 0 0 0-.156-.197C13.543 17.454 7.664 22.958 5.72 28.06a.347.347 0 0 0 .058.35h-.01ZM59.98 45.214c3.31.367 5.362-3.818 3.796-6.562a.094.094 0 0 0-.178.047c0 2.702-1.028 5.277-3.64 6.332a.095.095 0 0 0-.064.1.094.094 0 0 0 .085.083ZM5.142 30.104a1.06 1.06 0 0 0-.736.214.974.974 0 0 0-.347.458.936.936 0 0 0-.025.556c.064.249.204.472.4.638.234-.064.454-.175.644-.327a.878.878 0 0 0 .314-.872 2.644 2.644 0 0 0-.25-.667Zm58.264 6.784a.075.075 0 0 0 .064.062.075.075 0 0 0 .078-.043 1.24 1.24 0 0 0 .13-.485 1.793 1.793 0 0 0-.094-.675 1.73 1.73 0 0 0-.342-.586 1.23 1.23 0 0 0-.4-.306.078.078 0 0 0-.102.1c.07.145.125.278.18.411a10.723 10.723 0 0 1 .378 1.097c.039.133.075.27.108.425ZM62.05 6.75c4.308-1.08 10.503-.85 14.469 1.208a.039.039 0 0 0 .06-.039.039.039 0 0 0-.016-.025c-3.41-2.996-10.583-3.316-14.538-1.216a.04.04 0 0 0 0 .067.039.039 0 0 0 .025.005Z"/></svg>