<svg xmlns="http://www.w3.org/2000/svg" width="48" height="49" fill="none"><path fill="#009D77" d="M47 28.5a6.003 6.003 0 0 0-3.5-5.447V22.5C43.5 11.748 34.752 3 24 3S4.5 11.748 4.5 22.5v.553A6.003 6.003 0 0 0 1 28.5c0 3.308 2.691 6 6 6h2a1 1 0 0 0 1-1v-10a1 1 0 0 0-1-1H7a6.34 6.34 0 0 0-.5.025V22.5C6.5 12.85 14.35 5 24 5s17.5 7.85 17.5 17.5v.025a6.03 6.03 0 0 0-.5-.025h-2a1 1 0 0 0-1 1v10a1 1 0 0 0 1 1h2c.169 0 .335-.012.5-.025V36c0 3.308-2.691 6-6 6H28c0-1.103-.897-2-2-2h-5c-1.103 0-2 .897-2 2v2c0 1.103.897 2 2 2h5c1.103 0 2-.897 2-2h7.5c4.411 0 8-3.589 8-8v-2.053A6.003 6.003 0 0 0 47 28.5Zm-39-4v8H7c-2.206 0-4-1.794-4-4s1.794-4 4-4h1ZM21 44v-2h5v1.007l.002.993H21Zm20-11.5h-1v-8h1c2.206 0 4 1.794 4 4s-1.794 4-4 4ZM24 35c6.065 0 11-4.935 11-11s-4.935-11-11-11-11 4.935-11 11c0 1.962.526 3.88 1.525 5.573l-1.007 5.238a1 1 0 0 0 1.378 1.107l4.49-1.938A10.854 10.854 0 0 0 24 35Zm-8.161-1.667.723-3.764a1 1 0 0 0-.14-.728A8.96 8.96 0 0 1 15 24c0-4.963 4.038-9 9-9s9 4.037 9 9-4.038 9-9 9a8.897 8.897 0 0 1-4.127-1.009.998.998 0 0 0-.856-.03l-3.178 1.372ZM24 27h-5a1 1 0 0 1 0-2h5a1 1 0 0 1 0 2Zm-6-5a1 1 0 0 1 1-1h10a1 1 0 0 1 0 2H19a1 1 0 0 1-1-1Z"/></svg>