<svg xmlns="http://www.w3.org/2000/svg" width="25" height="24" fill="none"><path fill="#009D77" d="M22.487 15.776V9.282a1.42 1.42 0 0 0-.828-1.298l-8.827-4.12a2.183 2.183 0 0 0-1.854 0l-8.827 4.12c-.51.237-.827.735-.827 1.298 0 .563.317 1.061.827 1.299l2.079.97v3.2c0 1.052.565 2.032 1.477 2.557l1.695.978c1.39.8 2.946 1.2 4.503 1.2a9.02 9.02 0 0 0 4.504-1.2l1.696-.978a2.96 2.96 0 0 0 1.476-2.556V11.55l1.556-.726v4.951a1.435 1.435 0 0 0-1.187 1.41v1.72c0 .792.643 1.435 1.435 1.435h.854c.791 0 1.435-.643 1.435-1.434v-1.72c0-.707-.514-1.292-1.187-1.41Zm-4.255-1.024c0 .571-.307 1.102-.8 1.387l-1.696.977a7.693 7.693 0 0 1-7.66.001l-1.695-.977a1.607 1.607 0 0 1-.801-1.388v-2.571l5.399 2.519a2.182 2.182 0 0 0 1.853 0l5.4-2.52v2.572Zm2.858-5.394-8.828 4.12a.837.837 0 0 1-.712 0l-8.828-4.12a.077.077 0 0 1-.048-.076c0-.053.034-.07.048-.076l8.828-4.119a.847.847 0 0 1 .712 0l8.828 4.12c.015.006.048.022.048.075s-.034.07-.048.076Zm1.234 9.549a.084.084 0 0 1-.085.084h-.854a.085.085 0 0 1-.085-.084v-1.72c0-.047.038-.085.085-.085h.854c.047 0 .085.038.085.085v1.72Z"/></svg>