<svg xmlns="http://www.w3.org/2000/svg" width="1440" height="768" fill="none"><g clip-path="url(#a)" opacity=".6"><g filter="url(#b)"><ellipse cx="664.985" cy="673.184" fill="url(#c)" rx="664.985" ry="673.184" transform="scale(1 -1) rotate(51.541 2147.816 1035.482)"/></g><g filter="url(#d)"><ellipse cx="449.681" cy="454.849" fill="#FD9AC0" rx="449.681" ry="454.849" transform="matrix(-1 0 0 1 1685.74 -718.523)"/></g><g filter="url(#e)"><ellipse cx="367.337" cy="371.793" fill="#FFC1DF" rx="367.337" ry="371.793" transform="matrix(-1 0 0 1 1814.42 -731)"/></g><g filter="url(#f)"><path fill="#fff" fill-opacity=".85" d="M658.633 653.535c-140.408-350.32 81.426-781.601 716.507-900.731C785.873-6.793 779.626 391.712 834.37 688.696l-175.737-35.161Z"/></g><g filter="url(#g)"><path fill="#fff" fill-opacity=".85" d="M516.566 488.432C361.606 272.29 440.937-60.134 855.532-248.389 492.67 15.159 555.366 288.923 642.739 482.961l-126.173 5.471Z"/></g><g filter="url(#h)"><path fill="url(#i)" fill-opacity=".7" d="M993.119 638.495c-107.89-279.476 72.561-619.538 577.841-707.65-470.15 184.832-479.15 501.067-438.71 737.34l-139.131-29.69Z"/></g><g filter="url(#j)"><path fill="#fff" fill-opacity=".8" d="M1209.51 679.957c-44.21-296.296 206.17-588.716 718.5-564.299-499.18 77.643-82.48 476.132-94.64 715.532l-623.86-151.233Z"/></g><g filter="url(#k)"><ellipse cx="-144.272" cy="350.994" fill="url(#l)" rx="664.985" ry="673.184" transform="rotate(-128.459 -144.272 350.994)"/></g><g filter="url(#m)"><ellipse cx="128.942" cy="-263.674" fill="#39EDC1" rx="449.681" ry="454.849"/></g><g filter="url(#n)"><ellipse cx="-82.087" cy="-359.207" fill="#FFC1DF" rx="367.337" ry="371.793"/></g><g filter="url(#o)"><path fill="#fff" fill-opacity=".85" d="M706.367 653.535c140.408-350.32-81.426-781.601-716.512-900.731C579.127-6.793 585.374 391.712 530.63 688.696l175.737-35.161Z"/></g><g filter="url(#p)"><path fill="#fff" fill-opacity=".85" d="M848.434 488.432C1003.39 272.29 924.063-60.134 509.468-248.389 872.33 15.159 809.634 288.923 722.261 482.961l126.173 5.471Z"/></g><g filter="url(#q)"><path fill="url(#r)" fill-opacity=".7" d="M371.881 638.495c107.89-279.476-72.557-619.538-577.839-707.65 470.149 184.832 479.15 501.067 438.712 737.34l139.127-29.69Z"/></g><g filter="url(#s)"><path fill="#fff" fill-opacity=".8" d="M155.485 679.957c44.22-296.296-206.168-588.716-718.493-564.299 499.174 77.643 82.476 476.132 94.639 715.532l623.854-151.233Z"/></g></g><defs><filter id="b" width="2053.04" height="2049.31" x="482.754" y="-673.663" color-interpolation-filters="sRGB" filterUnits="userSpaceOnUse"><feFlood flood-opacity="0" result="BackgroundImageFix"/><feBlend in="SourceGraphic" in2="BackgroundImageFix" result="shape"/><feGaussianBlur result="effect1_foregroundBlur_2659_4654" stdDeviation="178.232"/></filter><filter id="d" width="1612.29" height="1622.63" x="429.912" y="-1074.99" color-interpolation-filters="sRGB" filterUnits="userSpaceOnUse"><feFlood flood-opacity="0" result="BackgroundImageFix"/><feBlend in="SourceGraphic" in2="BackgroundImageFix" result="shape"/><feGaussianBlur result="effect1_foregroundBlur_2659_4654" stdDeviation="178.232"/></filter><filter id="e" width="1447.6" height="1456.52" x="723.285" y="-1087.46" color-interpolation-filters="sRGB" filterUnits="userSpaceOnUse"><feFlood flood-opacity="0" result="BackgroundImageFix"/><feBlend in="SourceGraphic" in2="BackgroundImageFix" result="shape"/><feGaussianBlur result="effect1_foregroundBlur_2659_4654" stdDeviation="178.232"/></filter><filter id="f" width="1113.43" height="1292.36" x="439.947" y="-425.428" color-interpolation-filters="sRGB" filterUnits="userSpaceOnUse"><feFlood flood-opacity="0" result="BackgroundImageFix"/><feBlend in="SourceGraphic" in2="BackgroundImageFix" result="shape"/><feGaussianBlur result="effect1_foregroundBlur_2659_4654" stdDeviation="89.116"/></filter><filter id="g" width="768.988" height="1093.29" x="264.775" y="-426.622" color-interpolation-filters="sRGB" filterUnits="userSpaceOnUse"><feFlood flood-opacity="0" result="BackgroundImageFix"/><feBlend in="SourceGraphic" in2="BackgroundImageFix" result="shape"/><feGaussianBlur result="effect1_foregroundBlur_2659_4654" stdDeviation="89.116"/></filter><filter id="h" width="857.407" height="986.866" x="838.313" y="-193.918" color-interpolation-filters="sRGB" filterUnits="userSpaceOnUse"><feFlood flood-opacity="0" result="BackgroundImageFix"/><feBlend in="SourceGraphic" in2="BackgroundImageFix" result="shape"/><feGaussianBlur result="effect1_foregroundBlur_2659_4654" stdDeviation="62.381"/></filter><filter id="j" width="1151.24" height="1144.72" x="990.643" y="-99.65" color-interpolation-filters="sRGB" filterUnits="userSpaceOnUse"><feFlood flood-opacity="0" result="BackgroundImageFix"/><feBlend in="SourceGraphic" in2="BackgroundImageFix" result="shape"/><feGaussianBlur result="effect1_foregroundBlur_2659_4654" stdDeviation="106.94"/></filter><filter id="k" width="2053.04" height="2049.31" x="-1170.79" y="-673.663" color-interpolation-filters="sRGB" filterUnits="userSpaceOnUse"><feFlood flood-opacity="0" result="BackgroundImageFix"/><feBlend in="SourceGraphic" in2="BackgroundImageFix" result="shape"/><feGaussianBlur result="effect1_foregroundBlur_2659_4654" stdDeviation="178.232"/></filter><filter id="m" width="1612.29" height="1622.63" x="-677.203" y="-1074.99" color-interpolation-filters="sRGB" filterUnits="userSpaceOnUse"><feFlood flood-opacity="0" result="BackgroundImageFix"/><feBlend in="SourceGraphic" in2="BackgroundImageFix" result="shape"/><feGaussianBlur result="effect1_foregroundBlur_2659_4654" stdDeviation="178.232"/></filter><filter id="n" width="1447.6" height="1456.52" x="-805.889" y="-1087.46" color-interpolation-filters="sRGB" filterUnits="userSpaceOnUse"><feFlood flood-opacity="0" result="BackgroundImageFix"/><feBlend in="SourceGraphic" in2="BackgroundImageFix" result="shape"/><feGaussianBlur result="effect1_foregroundBlur_2659_4654" stdDeviation="178.232"/></filter><filter id="o" width="1113.43" height="1292.36" x="-188.377" y="-425.428" color-interpolation-filters="sRGB" filterUnits="userSpaceOnUse"><feFlood flood-opacity="0" result="BackgroundImageFix"/><feBlend in="SourceGraphic" in2="BackgroundImageFix" result="shape"/><feGaussianBlur result="effect1_foregroundBlur_2659_4654" stdDeviation="89.116"/></filter><filter id="p" width="768.988" height="1093.29" x="331.236" y="-426.622" color-interpolation-filters="sRGB" filterUnits="userSpaceOnUse"><feFlood flood-opacity="0" result="BackgroundImageFix"/><feBlend in="SourceGraphic" in2="BackgroundImageFix" result="shape"/><feGaussianBlur result="effect1_foregroundBlur_2659_4654" stdDeviation="89.116"/></filter><filter id="q" width="857.407" height="986.866" x="-330.721" y="-193.918" color-interpolation-filters="sRGB" filterUnits="userSpaceOnUse"><feFlood flood-opacity="0" result="BackgroundImageFix"/><feBlend in="SourceGraphic" in2="BackgroundImageFix" result="shape"/><feGaussianBlur result="effect1_foregroundBlur_2659_4654" stdDeviation="62.381"/></filter><filter id="s" width="1151.24" height="1144.72" x="-776.887" y="-99.65" color-interpolation-filters="sRGB" filterUnits="userSpaceOnUse"><feFlood flood-opacity="0" result="BackgroundImageFix"/><feBlend in="SourceGraphic" in2="BackgroundImageFix" result="shape"/><feGaussianBlur result="effect1_foregroundBlur_2659_4654" stdDeviation="106.94"/></filter><linearGradient id="c" x1="490.852" x2="664.985" y1="1021.09" y2="1346.37" gradientUnits="userSpaceOnUse"><stop stop-color="#fff"/><stop offset="1" stop-color="#391DE8"/></linearGradient><linearGradient id="i" x1="1063.17" x2="1975.44" y1="414.585" y2="-437.301" gradientUnits="userSpaceOnUse"><stop stop-color="#fff"/><stop offset="1" stop-color="#fff" stop-opacity="0"/></linearGradient><linearGradient id="l" x1="-318.405" x2="-144.272" y1="698.904" y2="1024.18" gradientUnits="userSpaceOnUse"><stop stop-color="#fff"/><stop offset="1" stop-color="#391DE8"/></linearGradient><linearGradient id="r" x1="301.831" x2="-610.438" y1="414.585" y2="-437.301" gradientUnits="userSpaceOnUse"><stop stop-color="#fff"/><stop offset="1" stop-color="#fff" stop-opacity="0"/></linearGradient><clipPath id="a"><path fill="#fff" d="M0 0h1440v768H0z"/></clipPath></defs></svg>