<svg xmlns="http://www.w3.org/2000/svg" width="48" height="48" fill="none"><path stroke="#009D77" stroke-linecap="round" stroke-linejoin="round" stroke-width="2" d="M15 24h12m-12-8h6m-4 24c2.1 1.74 4.629 2.848 7.527 3.038 2.283.15 4.667.15 6.946 0a7.883 7.883 0 0 0 2.377-.536c.819-.333 1.229-.5 1.437-.474.209.025.51.245 1.115.685 1.066.775 2.408 1.332 4.399 1.284 1.007-.024 1.51-.036 1.735-.415.226-.38-.055-.904-.616-1.954-.779-1.456-1.272-3.122-.525-4.458 1.288-1.907 2.38-4.166 2.54-6.605a30.79 30.79 0 0 0 0-3.98A13.358 13.358 0 0 0 42.803 22"/><path stroke="#009D77" stroke-linejoin="round" stroke-width="2" d="M24.69 34.974c7.111-.469 12.776-6.16 13.242-13.305a32.956 32.956 0 0 0 0-4.245C37.466 10.28 31.802 4.588 24.69 4.12a56.936 56.936 0 0 0-7.38 0c-7.111.468-12.775 6.16-13.242 13.304a32.956 32.956 0 0 0 0 4.245c.17 2.602 1.332 5.012 2.7 7.046.794 1.424.27 3.202-.558 4.755-.596 1.12-.894 1.68-.655 2.084.24.404.774.417 1.844.443 2.115.051 3.542-.543 4.674-1.37.642-.47.963-.704 1.184-.73.222-.028.657.15 1.528.505.783.32 1.691.517 2.525.572 2.421.159 4.954.16 7.38 0Z"/></svg>