<svg xmlns="http://www.w3.org/2000/svg" width="1440" height="1202" fill="none"><g clip-path="url(#a)"><path fill="#F8F8F8" d="M0 0h1440v1202H0z"/><g filter="url(#b)"><path fill="url(#c)" fill-opacity=".5" d="M1691.52 484.6c-17.91 299.043-323.27 533.47-819.52 403.799 504.45 27.091 643.96-256.851 705.28-488.582l114.24 84.783Z"/></g><g filter="url(#d)"><path fill="url(#e)" fill-opacity=".7" d="M-444.857 45.005c58.828 293.745 393.51 483.985 867.231 287.36-495.942 96.15-673.141-165.929-765.729-387.036l-101.502 99.676Z"/></g></g><defs><linearGradient id="c" x1="1534.81" x2="351.167" y1="659.203" y2="1055.34" gradientUnits="userSpaceOnUse"><stop stop-color="#EA4C89" stop-opacity=".5"/><stop offset="1" stop-color="#EA4C89" stop-opacity="0"/></linearGradient><linearGradient id="e" x1="-265.646" x2="961.206" y1="196.42" y2="426.154" gradientUnits="userSpaceOnUse"><stop stop-color="#009D77" stop-opacity=".5"/><stop offset="1" stop-color="#009D77" stop-opacity="0"/></linearGradient><filter id="b" width="1079.52" height="785.126" x="742" y="269.817" color-interpolation-filters="sRGB" filterUnits="userSpaceOnUse"><feFlood flood-opacity="0" result="BackgroundImageFix"/><feBlend in="SourceGraphic" in2="BackgroundImageFix" result="shape"/><feGaussianBlur result="effect1_foregroundBlur_2659_4650" stdDeviation="65"/></filter><filter id="d" width="1127.23" height="727.442" x="-574.857" y="-184.671" color-interpolation-filters="sRGB" filterUnits="userSpaceOnUse"><feFlood flood-opacity="0" result="BackgroundImageFix"/><feBlend in="SourceGraphic" in2="BackgroundImageFix" result="shape"/><feGaussianBlur result="effect1_foregroundBlur_2659_4650" stdDeviation="65"/></filter><clipPath id="a"><path fill="#fff" d="M0 0h1440v1202H0z"/></clipPath></defs></svg>